<?xml version="1.0" encoding="UTF-8" standalone="no"?>
<svg
   id="svg2"
   height="320"
   width="320"
   version="1.1"
   viewBox="0 0 320 320.00001"
   sodipodi:docname="logo_white.svg"
   inkscape:version="1.2.2 (b0a8486541, 2022-12-01)"
   xmlns:inkscape="http://www.inkscape.org/namespaces/inkscape"
   xmlns:sodipodi="http://sodipodi.sourceforge.net/DTD/sodipodi-0.dtd"
   xmlns="http://www.w3.org/2000/svg"
   xmlns:svg="http://www.w3.org/2000/svg">
  <defs
     id="defs176" />
  <sodipodi:namedview
     id="namedview174"
     pagecolor="#ffffff"
     bordercolor="#000000"
     borderopacity="0.25"
     inkscape:showpageshadow="2"
     inkscape:pageopacity="0.0"
     inkscape:pagecheckerboard="true"
     inkscape:deskcolor="#d1d1d1"
     showgrid="false"
     inkscape:zoom="0.7375"
     inkscape:cx="159.32203"
     inkscape:cy="160"
     inkscape:window-width="569"
     inkscape:window-height="1411"
     inkscape:window-x="1723"
     inkscape:window-y="5"
     inkscape:window-maximized="1"
     inkscape:current-layer="svg2" />
  <g
     id="g56"
     transform="matrix(0.59056053,0,0,0.59056053,4.1675321,143.5241)">
	<path
   class="st34"
   d="m 524.43,12.47 c -1.71,2.54 -3.31,4.92 -4.98,7.4 -0.97,-0.79 -1.87,-1.58 -2.83,-2.28 -4.14,-3 -8.65,-4.97 -13.89,-4.67 -6.82,0.38 -12.18,3.5 -15.86,9.16 -7.98,12.24 -1.3,28.03 13.08,30.91 5.76,1.15 11.33,0.45 16.17,-3.24 3.55,-2.71 5.31,-7.66 5.34,-12.29 -5.84,0 -10.69,0 -16.54,0 0,-2.76 0,-5.99 0,-8.71 8.86,0 16.82,0 25.97,0 0.03,2.06 0.17,6.07 0.06,8.15 -0.29,5.76 -2.03,11.04 -5.65,15.59 -4.53,5.69 -10.51,8.87 -17.72,9.67 -9.84,1.09 -18.42,-1.79 -25.16,-9.03 -7.87,-8.45 -10.12,-18.5 -6.34,-29.4 3.73,-10.76 11.53,-17.36 22.82,-19.4 9.83,-1.77 18.08,1.83 25.53,8.14 z"
   id="path4"
   style="fill:#ffffff" />

	<path
   class="st34"
   d="m 256.83,4.84 c 11.27,0 22.42,0 33.66,0 0,2.9 0,5.74 0,8.72 -8.25,0 -16.48,0 -24.78,0 0,4.87 0,9.61 0,14.48 7.09,0 14.19,0 21.37,0 0,3.01 0,5.89 0,8.9 -7.13,0 -14.22,0 -21.38,0 0,5.25 0,10.37 0,15.61 8.24,0 16.48,0 24.79,0 0,3 0,5.88 0,8.83 -11.2,0 -22.39,0 -33.66,0 0,-18.81 0,-37.64 0,-56.54 z"
   id="path6"
   style="fill:#ffffff" />

	<path
   class="st34"
   d="m 209.18,51.5 c 2.36,-1.69 4.66,-3.33 7.01,-5.01 2.03,3.33 4.89,5.47 8.62,6.42 3.39,0.86 6.76,0.74 10.02,-0.54 1.04,-0.41 2.06,-0.98 2.93,-1.68 2.74,-2.19 3.09,-5.57 0.94,-8.33 -1.55,-1.99 -3.66,-3.28 -5.87,-4.36 -3.76,-1.84 -7.61,-3.52 -11.37,-5.35 -3.06,-1.49 -5.83,-3.41 -7.65,-6.38 -3.26,-5.28 -2.15,-12.71 2.58,-17.23 4.69,-4.49 10.44,-5.7 16.68,-5.05 4.31,0.45 8.13,2.1 10.98,5.49 1.08,1.28 1.87,2.8 2.86,4.31 -2.36,1.63 -4.52,3.12 -6.46,4.46 -1.42,-1.38 -2.61,-2.88 -4.1,-3.94 -3.61,-2.56 -9.07,-2.33 -12.58,0.26 -3.15,2.32 -4.44,7.25 0.35,9.96 2.09,1.19 4.32,2.16 6.53,3.13 3.98,1.74 7.94,3.49 11.57,5.94 10.29,6.96 8.4,20.97 -1.5,25.92 -8.79,4.39 -17.58,4.11 -25.93,-1.38 -2.44,-1.62 -4.22,-3.88 -5.61,-6.64 z"
   id="path8"
   style="fill:#ffffff" />

	<path
   class="st34"
   d="m 353.23,51.5 c 2.35,-1.68 4.64,-3.32 7.01,-5.01 1.72,2.85 4.09,4.88 7.2,5.98 3.85,1.37 7.73,1.34 11.53,-0.13 1.17,-0.45 2.31,-1.17 3.24,-2.02 2.35,-2.12 2.57,-5.21 0.69,-7.76 -1.52,-2.07 -3.66,-3.39 -5.9,-4.49 -3.79,-1.86 -7.67,-3.56 -11.47,-5.41 -3.06,-1.49 -5.83,-3.41 -7.66,-6.37 -3.26,-5.27 -2.16,-12.71 2.56,-17.24 4.69,-4.49 10.43,-5.72 16.68,-5.07 4.31,0.45 8.14,2.09 10.98,5.48 1.1,1.3 1.9,2.85 2.87,4.33 -2.38,1.64 -4.52,3.12 -6.73,4.65 -0.19,-0.29 -0.35,-0.52 -0.5,-0.77 -3.24,-5.45 -11.2,-6.88 -16.15,-2.9 -1.25,1 -2.14,2.26 -2.44,3.84 -0.42,2.22 0.27,4.15 2.19,5.31 2.18,1.33 4.5,2.46 6.83,3.5 3.97,1.76 8.01,3.38 11.61,5.85 3.2,2.19 5.77,4.88 6.81,8.74 1.76,6.53 -0.96,13.28 -6.8,16.96 -7.75,4.88 -19.6,4.52 -26.95,-0.82 -2.38,-1.73 -4.24,-3.91 -5.6,-6.65 z"
   id="path10"
   style="fill:#ffffff" />

	<path
   class="st34"
   d="m 400.87,4.81 c 2.94,0 5.78,0 8.71,0 0,18.84 0,37.66 0,56.56 -2.85,0 -5.74,0 -8.71,0 0,-18.81 0,-37.63 0,-56.56 z"
   id="path12"
   style="fill:#ffffff" />

	<g
   id="g38">
		<path
   class="st34"
   d="m 192.44,13.55 c 0,-2.97 0,-5.82 0,-8.72 -11.24,0 -22.4,0 -33.66,0 0,18.9 0,37.73 0,56.55 11.27,0 22.46,0 33.66,0 0,-2.95 0,-5.83 0,-8.83 -8.32,0 -16.55,0 -24.79,0 0,-5.24 0,-10.36 0,-15.61 7.16,0 14.25,0 21.38,0 0,-3.01 0,-5.89 0,-8.9 -7.18,0 -14.27,0 -21.37,0 0,-4.87 0,-9.61 0,-14.48 8.3,-0.01 16.53,-0.01 24.78,-0.01 z"
   id="path14"
   style="fill:#ffffff" />

		<path
   class="st34"
   d="M 14.14,46.23 C 7.15,38.48 7.35,27 14.88,19.04 c 6.61,-7 18.45,-9.84 29.03,0.21 1.73,-2.34 3.41,-4.61 5.03,-6.8 C 48.9,12.28 48.9,12.23 48.88,12.21 48.79,12.09 48.7,11.97 48.59,11.87 41.72,5.57 33.81,2.51 24.38,4.11 9.06,6.72 -1.97,21.78 0.3,36.99 c 2.44,16.37 17.88,27.58 34.16,24.74 5.75,-1 10.44,-3.96 14.57,-8.05 -1.72,-2.39 -3.4,-4.73 -5.1,-7.1 -10.99,10.7 -23.25,6.91 -29.79,-0.35 z"
   id="path16"
   style="fill:#ffffff" />

		<path
   class="st34"
   d="M 138.68,38.4 C 147.92,34.7 152,24.01 147.44,15.18 143.74,8.04 137.58,4.8 129.7,4.65 124.29,4.55 118.87,4.63 113.46,4.63 c -0.33,0 -3.21,0.04 -3.53,0.06 0,2.96 0,5.92 0,8.87 h 17.93 v 0 c 1.49,-0.01 2.97,0.03 4.44,0.18 4.47,0.46 7.83,4.6 7.8,8.92 -0.03,4.41 -3.62,8.68 -8.1,9.09 h -16.26 v 8.77 h 13.25 c 0.15,0.05 0.24,0.1 0.28,0.15 4.56,6.63 9.18,13.22 13.79,19.81 0.23,0.33 0.64,0.76 0.97,0.77 3.43,0.06 6.86,0.03 10.52,0.03 -5.56,-7.64 -11,-15.1 -16.46,-22.6 0.26,-0.12 0.42,-0.22 0.59,-0.28 z"
   id="path18"
   style="fill:#ffffff" />

		<path
   class="st34"
   d="m 102.23,26.43 v -0.17 l -6.98,0.62 h -0.02 v 0.16 C 95.03,40.27 83.28,52.02 70.48,51.79 59.06,51.59 52.56,41.61 54.73,30.59 56.68,20.54 65.43,11.8 75.18,10.07 l 0.54,-4.71 c -12.08,2.38 -22.9,13.23 -25.57,25.63 0,0.02 -0.01,0.04 -0.01,0.06 -0.14,0.53 -0.29,1.02 -0.41,1.59 -2.97,13.8 3.71,26.92 16.89,29.91 l 1.05,-3.76 c 0.65,0.09 1.3,0.18 1.98,0.22 3.14,0.16 6.24,-0.25 9.2,-1.12 l 2.18,3.5 8.54,-4.33 -0.9,-4.15 c 3.03,-2.25 5.71,-5 7.86,-8.14 l 3.94,0.91 4.16,-8.72 -3.48,-2.29 c 0.72,-2.66 1.12,-5.42 1.08,-8.24 z"
   id="path20"
   style="fill:#ffffff" />

		<polygon
   class="st34"
   points="77.77,9.67 83.29,8.71 83.29,8.74 83.67,3.81 78.27,4.83 "
   id="polygon22"
   style="fill:#ffffff" />

		<polygon
   class="st34"
   points="91.86,4.72 86.62,5.74 86.34,10.31 91.69,9.42 91.69,9.37 "
   id="polygon24"
   style="fill:#ffffff" />

		<polygon
   class="st34"
   points="102.2,17.09 95.38,17.93 95.29,24.04 102.3,23.34 102.3,23.3 "
   id="polygon26"
   style="fill:#ffffff" />

		<polygon
   class="st34"
   points="85.11,0.64 84.96,2.77 87.49,2.28 87.62,0.12 "
   id="polygon28"
   style="fill:#ffffff" />

		<polygon
   class="st34"
   points="100.62,8.25 104.59,7.61 104.61,7.61 104.53,4.36 100.62,5.05 "
   id="polygon30"
   style="fill:#ffffff" />

		<polygon
   class="st34"
   points="99.35,14.7 99.35,14.71 99.36,14.7 "
   id="polygon32"
   style="fill:#ffffff" />

		<polygon
   class="st34"
   points="92.96,10.06 92.8,15.59 99.35,14.7 99.35,9.05 "
   id="polygon34"
   style="fill:#ffffff" />

		<path
   class="st34"
   d="m 82.28,15.39 -10.13,17.37 -3.12,-10.14 -7.3,8.51 -4.2,0.55 C 57.3,33.02 57.25,34 57.31,35.29 l 6.14,-0.6 3.87,-4.31 3.71,12.06 9.97,-17.09 2.55,9.15 8.75,-9.81 0.06,-0.07 v -0.68 l 0.07,-5.08 -6.86,8.02 z"
   id="path36"
   style="fill:#ffffff" />

	</g>

	<g
   id="g46">
		<path
   class="st34"
   d="m 300.25,3.71 c 12.01,12.52 24.03,25.04 36.26,37.78 0,-12.38 0,-24.5 0,-36.71 3.09,0 6.02,0 8.98,0 0,19.21 0,38.38 0,57.54 -0.09,0.07 -0.19,0.14 -0.28,0.2 -12.06,-12.56 -24.11,-25.13 -36.37,-37.91 0,12.44 0,24.58 0,36.8 -3,0 -5.89,0 -8.85,0 0,-19.18 0,-38.34 0,-57.5 0.08,-0.06 0.17,-0.13 0.26,-0.2 z"
   id="path40"
   style="fill:#ffffff" />

		<polygon
   class="st34"
   points="345.49,62.81 345.49,62.32 345.16,62.27 345.21,62.53 "
   id="polygon42"
   style="fill:#ffffff" />

		<polygon
   class="st34"
   points="300.17,3.94 300.26,3.77 300.25,3.71 299.98,3.44 299.98,3.91 "
   id="polygon44"
   style="fill:#ffffff" />

	</g>

	<g
   id="g54">
		<path
   class="st34"
   d="m 420.91,3.71 c 12.01,12.52 24.03,25.04 36.26,37.78 0,-12.38 0,-24.5 0,-36.71 3.09,0 6.02,0 8.98,0 0,19.21 0,38.38 0,57.54 -0.09,0.07 -0.19,0.14 -0.28,0.2 -12.06,-12.56 -24.11,-25.13 -36.37,-37.91 0,12.44 0,24.58 0,36.8 -3,0 -5.89,0 -8.85,0 0,-19.18 0,-38.34 0,-57.5 0.07,-0.06 0.16,-0.13 0.26,-0.2 z"
   id="path48"
   style="fill:#ffffff" />

		<polygon
   class="st34"
   points="466.14,62.81 466.14,62.32 465.81,62.27 465.86,62.53 "
   id="polygon50"
   style="fill:#ffffff" />

		<polygon
   class="st34"
   points="420.82,3.94 420.92,3.77 420.91,3.71 420.63,3.44 420.63,3.91 "
   id="polygon52"
   style="fill:#ffffff" />

	</g>

</g>
</svg>
